<svg width="128" height="128" viewBox="0 0 128 128" fill="none" xmlns="http://www.w3.org/2000/svg">
<path d="M8 8H120V120H8V8Z" fill="#F5DE19"/>
<path d="M83.2363 95.4999C84.1921 97.4371 85.675 99.0653 87.5147 100.197C89.3544 101.33 91.4762 101.92 93.6363 101.9C97.9963 101.9 100.784 99.7199 100.784 96.6999C100.784 93.0999 97.9203 91.8119 93.1203 89.7119L90.4883 88.5839C82.8883 85.3479 77.8483 81.2959 77.8483 72.7279C77.8483 64.8359 83.8483 58.8239 93.2603 58.8239C96.307 58.6044 99.351 59.2866 102.013 60.7853C104.674 62.284 106.836 64.533 108.228 67.2519L100 72.5119C99.4639 71.1639 98.5306 70.0107 97.3242 69.205C96.1177 68.3992 94.6949 67.979 93.2443 67.9999C92.6113 67.9366 91.9721 68.0057 91.3674 68.2031C90.7626 68.4004 90.2056 68.7215 89.7318 69.146C89.2581 69.5705 88.8779 70.089 88.6156 70.6685C88.3533 71.248 88.2146 71.8758 88.2083 72.5119C88.2083 75.6679 90.1643 76.9479 94.6803 78.9119L97.3123 80.0399C106.256 83.8759 111.312 87.7839 111.312 96.5719C111.312 106.048 103.868 111.24 93.8723 111.24C89.9779 111.486 86.0955 110.6 82.6926 108.69C79.2897 106.781 76.5115 103.928 74.6923 100.476L83.2363 95.4999ZM46.0563 96.4119C47.7083 99.3439 49.2123 101.824 52.8283 101.824C56.2843 101.824 58.4683 100.472 58.4683 95.2119V59.4239H68.9923V95.3519C68.9923 106.248 62.5923 111.208 53.2763 111.208C49.9833 111.388 46.7129 110.567 43.895 108.854C41.0772 107.14 38.8437 104.614 37.4883 101.608L46.0563 96.4119Z" fill="#0B1D31"/>
</svg>
