<svg width="128" height="128" viewBox="0 0 128 128" fill="none" xmlns="http://www.w3.org/2000/svg">
<g clip-path="url(#clip0_102_67)">
<path d="M98 0H30C13.4315 0 0 13.4315 0 30V98C0 114.569 13.4315 128 30 128H98C114.569 128 128 114.569 128 98V30C128 13.4315 114.569 0 98 0Z" fill="#0B1D31"/>
<path d="M59.9388 15.5581C62.3983 14.1506 65.6013 14.1441 68.0583 15.5581C80.4193 22.5431 92.7843 29.5166 105.143 36.5056C107.468 37.8151 109.023 40.4021 108.999 43.0806V85.1031C109.017 87.8926 107.308 90.5416 104.856 91.8211C92.5353 98.7676 80.2208 105.722 67.9023 112.669C65.3928 114.104 62.1253 113.993 59.6933 112.44C55.9998 110.299 52.2998 108.168 48.6058 106.029C47.8508 105.579 46.9998 105.221 46.4668 104.489C46.9383 103.854 47.7808 103.775 48.4653 103.498C50.0068 103.007 51.4233 102.22 52.8393 101.457C53.1978 101.212 53.6348 101.306 53.9783 101.525C57.1368 103.336 60.2678 105.2 63.4368 106.993C64.1128 107.384 64.7973 106.865 65.3753 106.543C77.4653 99.7096 89.5703 92.9026 101.659 86.0671C102.107 85.8516 102.354 85.3761 102.318 84.8856C102.326 71.0231 102.32 57.1586 102.322 43.2956C102.373 42.7396 102.051 42.2276 101.548 41.9996C89.2703 35.0851 76.9983 28.1606 64.7228 21.2446C64.5101 21.0984 64.2582 21.02 64.0002 21.0196C63.7422 21.0191 63.49 21.0967 63.2768 21.2421C51.0008 28.1606 38.7318 35.0921 26.4558 42.0056C25.9543 42.2341 25.6178 42.7376 25.6773 43.2956C25.6798 57.1586 25.6773 71.0231 25.6773 84.8876C25.6559 85.1271 25.7084 85.3674 25.8279 85.5761C25.9473 85.7848 26.1279 85.9518 26.3453 86.0546C29.6208 87.9121 32.9008 89.7566 36.1788 91.6081C38.0258 92.6016 40.2928 93.1926 42.3278 92.4311C44.1228 91.7871 45.3813 89.9546 45.3473 88.0486C45.3643 74.2671 45.3388 60.4836 45.3598 46.7036C45.3148 46.0921 45.8953 45.5866 46.4903 45.6446C48.0643 45.6336 49.6403 45.6231 51.2143 45.6486C51.8713 45.6336 52.3233 46.2926 52.2423 46.9086C52.2358 60.7776 52.2593 74.6466 52.2318 88.5151C52.2358 92.2116 50.7173 96.2336 47.2983 98.0421C43.0868 100.224 37.8808 99.7611 33.7198 97.6691C30.1178 95.8711 26.6798 93.7491 23.1418 91.8231C20.6828 90.5506 18.9828 87.8911 19.0003 85.1036V43.0806C18.9743 40.3466 20.5913 37.7126 22.9878 36.4221C35.3063 29.4706 47.6228 22.5131 59.9388 15.5581Z" fill="#81CD39"/>
<path d="M70.6854 44.6673C76.0579 44.3213 81.8094 44.4623 86.6439 47.1093C90.3874 49.1373 92.4624 53.3943 92.5284 57.5528C92.4239 58.1133 91.8374 58.4228 91.3019 58.3843C89.7434 58.3823 88.1839 58.4058 86.6254 58.3738C85.9639 58.3993 85.5799 57.7898 85.4969 57.2053C85.0489 55.2153 83.9634 53.2448 82.0909 52.2848C79.2159 50.8458 75.8829 50.9183 72.7479 50.9483C70.4594 51.0693 67.9984 51.2678 66.0594 52.6133C64.5709 53.6328 64.1189 55.6908 64.6499 57.3483C65.1509 58.5383 66.5244 58.9223 67.6489 59.2763C74.1234 60.9698 80.9844 60.8008 87.3354 63.0293C89.9649 63.9378 92.5369 65.7043 93.4369 68.4573C94.6144 72.1473 94.0984 76.5573 91.4729 79.5193C89.3439 81.9568 86.2434 83.2838 83.1509 84.0043C79.0369 84.9218 74.7674 84.9453 70.5894 84.5378C66.6609 84.0898 62.5724 83.0578 59.5399 80.3813C56.9464 78.1293 55.6799 74.6203 55.8054 71.2343C55.8354 70.6623 56.4049 70.2633 56.9529 70.3103C58.5224 70.2978 60.0924 70.2933 61.6619 70.3128C62.2894 70.2678 62.7539 70.8098 62.7864 71.4008C63.0754 73.2963 63.7879 75.2863 65.4414 76.4098C68.6314 78.4683 72.6349 78.3273 76.2879 78.3848C79.3144 78.2508 82.7119 78.2103 85.1814 76.2098C86.4844 75.0688 86.8704 73.1598 86.5184 71.5178C86.1369 70.1313 84.6864 69.4853 83.4409 69.0628C77.0494 67.0413 70.1114 67.7748 63.7819 65.4883C61.2119 64.5803 58.7269 62.8633 57.7399 60.2233C56.3624 56.4868 56.9934 51.8648 59.8939 49.0033C62.7219 46.1558 66.8039 45.0593 70.6854 44.6673Z" fill="#81CD39"/>
</g>
<defs>
<clipPath id="clip0_102_67">
<rect width="128" height="128" fill="white"/>
</clipPath>
</defs>
</svg>
