<svg width="128" height="128" viewBox="0 0 128 128" fill="none" xmlns="http://www.w3.org/2000/svg">
<g clip-path="url(#clip0_102_21)">
<path d="M98 0H30C13.4315 0 0 13.4315 0 30V98C0 114.569 13.4315 128 30 128H98C114.569 128 128 114.569 128 98V30C128 13.4315 114.569 0 98 0Z" fill="#0B1D31"/>
<path d="M63.6395 14.5C38.2535 14.5 39.8385 25.509 39.8385 25.509L39.867 36.914H64.0925V40.339H30.2445C30.2445 40.339 14 38.496 14 64.1105C14 89.725 28.1785 88.8175 28.1785 88.8175H36.6405V76.931C36.6405 76.931 36.1845 62.7525 50.593 62.7525H74.62C74.62 62.7525 88.1195 62.9705 88.1195 49.7055V27.773C88.1195 27.773 90.169 14.5 63.6395 14.5ZM50.2815 22.1695C50.854 22.169 51.421 22.2815 51.95 22.5003C52.479 22.7192 52.9596 23.0402 53.3645 23.445C53.7693 23.8499 54.0903 24.3305 54.3092 24.8595C54.528 25.3885 54.6405 25.9555 54.64 26.528C54.6404 27.1005 54.5279 27.6674 54.309 28.1963C54.0901 28.7253 53.7691 29.2059 53.3643 29.6106C52.9595 30.0154 52.4788 30.3364 51.9499 30.5552C51.4209 30.7741 50.854 30.8865 50.2815 30.886C49.7091 30.8864 49.1422 30.7739 48.6133 30.5551C48.0844 30.3362 47.6038 30.0152 47.199 29.6105C46.7943 29.2057 46.4733 28.7251 46.2544 28.1962C46.0356 27.6673 45.9231 27.1004 45.9235 26.528C45.923 25.9555 46.0354 25.3886 46.2543 24.8596C46.4731 24.3307 46.7941 23.85 47.1989 23.4452C47.6036 23.0404 48.0842 22.7194 48.6132 22.5005C49.1421 22.2816 49.709 22.1691 50.2815 22.1695Z" fill="url(#paint0_linear_102_21)"/>
<path d="M64.361 113.979C89.747 113.979 88.162 102.971 88.162 102.971L88.1335 91.5652H63.908V88.1407H97.756C97.756 88.1407 114 89.9832 114 64.3682C114 38.7532 99.822 39.6617 99.822 39.6617H91.36V51.5482C91.36 51.5482 91.816 65.7267 77.4075 65.7267H53.3805C53.3805 65.7267 39.8805 65.5082 39.8805 78.7732V100.706C39.8805 100.706 37.831 113.979 64.361 113.979ZM77.719 106.31C77.1465 106.31 76.5796 106.198 76.0506 105.979C75.5216 105.76 75.041 105.439 74.6362 105.034C74.2314 104.63 73.9103 104.149 73.6914 103.62C73.4725 103.091 73.3601 102.524 73.3605 101.952C73.36 101.379 73.4724 100.812 73.6913 100.283C73.9102 99.7542 74.2312 99.2736 74.636 98.8687C75.0408 98.4639 75.5215 98.1429 76.0505 97.924C76.5795 97.7052 77.1465 97.5927 77.719 97.5932C78.2914 97.5927 78.8584 97.7052 79.3874 97.924C79.9164 98.1429 80.3971 98.4639 80.8019 98.8687C81.2067 99.2736 81.5278 99.7542 81.7466 100.283C81.9655 100.812 82.0779 101.379 82.0775 101.952C82.0779 102.524 81.9654 103.091 81.7465 103.62C81.5276 104.149 81.2065 104.63 80.8017 105.034C80.3969 105.439 79.9163 105.76 79.3873 105.979C78.8583 106.198 78.2914 106.31 77.719 106.31Z" fill="url(#paint1_linear_102_21)"/>
</g>
<defs>
<linearGradient id="paint0_linear_102_21" x1="23.61" y1="23.448" x2="73.1665" y2="72.51" gradientUnits="userSpaceOnUse">
<stop stop-color="#387EB8"/>
<stop offset="1" stop-color="#366994"/>
</linearGradient>
<linearGradient id="paint1_linear_102_21" x1="54.0285" y1="54.9527" x2="107.246" y2="105.261" gradientUnits="userSpaceOnUse">
<stop stop-color="#FFE052"/>
<stop offset="1" stop-color="#FFC331"/>
</linearGradient>
<clipPath id="clip0_102_21">
<rect width="128" height="128" fill="white"/>
</clipPath>
</defs>
</svg>
