<svg width="128" height="128" viewBox="0 0 128 128" fill="none" xmlns="http://www.w3.org/2000/svg">
<g clip-path="url(#clip0_102_40)">
<path d="M105.242 41.445C103.879 40.9203 102.505 40.4342 101.121 39.987C101.354 38.9203 101.568 37.8666 101.758 36.8313C104.877 19.8315 102.838 6.13604 95.8735 1.62685C89.196 -2.69596 78.2755 1.81155 67.2465 12.5888C66.1595 13.6528 65.0967 14.7475 64.059 15.8719C63.3643 15.1243 62.6574 14.3911 61.9385 13.6729C50.3795 2.14952 38.7935 -2.70719 31.8365 1.81492C25.165 6.1512 23.1895 19.0259 25.9975 35.137C26.2769 36.7327 26.5923 38.3201 26.9435 39.8977C25.3035 40.421 23.721 40.9779 22.2065 41.5707C8.6545 46.876 0 55.1898 0 63.8135C0 72.7202 9.291 81.6538 23.406 87.0708C24.5504 87.508 25.7042 87.9133 26.8665 88.2862C26.4891 89.9854 26.154 91.6961 25.8615 93.4163C23.1845 109.248 25.275 121.818 31.9285 126.127C38.8005 130.577 50.3345 126.004 61.565 114.98C62.4756 114.084 63.3662 113.163 64.236 112.217C65.3598 113.434 66.5135 114.616 67.696 115.761C78.575 126.272 89.319 130.516 95.966 126.196C102.832 121.733 105.063 108.229 102.166 91.7995C101.938 90.5124 101.682 89.2316 101.398 87.9584C102.208 87.6889 103.004 87.4116 103.779 87.123C118.452 81.6645 128 72.8392 128 63.8135C128 55.1584 119.066 46.7884 105.242 41.445ZM102.059 81.2956C101.358 81.5554 100.642 81.8071 99.909 82.0507C98.289 76.2924 96.103 70.1697 93.4275 63.8433C95.9805 57.6678 98.0825 51.6232 99.657 45.9025C100.966 46.328 102.237 46.7766 103.462 47.2499C115.307 51.8287 122.532 58.5975 122.532 63.8135C122.532 69.3692 114.729 76.5815 102.059 81.2956ZM96.802 92.9919C98.083 100.256 98.2655 106.825 97.417 111.96C96.655 116.574 95.122 119.65 93.226 120.882C89.1925 123.504 80.566 120.096 71.2625 111.107C70.1627 110.042 69.0895 108.944 68.044 107.812C71.651 103.383 75.2555 98.2343 78.7735 92.5158C84.9615 91.8994 90.8075 90.8911 96.109 89.5151C96.3707 90.6986 96.6017 91.8575 96.802 92.9919ZM43.638 120.429C39.697 121.992 36.558 122.037 34.6605 120.808C30.623 118.194 28.9445 108.1 31.234 94.5616C31.5062 92.9617 31.8178 91.3707 32.1685 89.7902C37.4115 91.0927 43.215 92.0291 49.4175 92.5939C52.9595 98.1894 56.668 103.332 60.4055 107.836C59.6112 108.699 58.7981 109.54 57.967 110.358C53.0005 115.232 48.024 118.69 43.638 120.429ZM25.175 81.2614C18.9335 78.8659 13.779 75.7529 10.246 72.3558C7.071 69.3035 5.4685 66.2725 5.4685 63.8135C5.4685 58.5801 12.417 51.905 24.0065 47.3683C25.413 46.8181 26.885 46.2988 28.4125 45.8116C30.0145 51.6614 32.1155 57.7779 34.651 63.9628C32.0825 70.2393 29.9515 76.4535 28.334 82.3724C27.2731 82.0311 26.2198 81.6607 25.175 81.2614ZM31.364 33.9575C28.9585 20.1543 30.556 9.74194 34.5765 7.1286C38.8585 4.34517 48.3275 8.31373 58.308 18.264C58.9588 18.9143 59.5991 19.5778 60.2285 20.2542C56.5095 24.7381 52.835 29.843 49.3245 35.4054C43.3045 36.0319 37.542 37.0379 32.244 38.3859C31.9175 36.9185 31.6241 35.4415 31.364 33.9575ZM86.5775 49.2664C85.3261 46.8395 84.0283 44.443 82.685 42.0788C86.769 42.6587 90.682 43.4284 94.3565 44.3693C93.2535 48.3396 91.8785 52.49 90.26 56.7454C89.077 54.2252 87.8492 51.7316 86.5775 49.2664ZM64.0615 24.6427C66.5835 27.7108 69.1095 31.1359 71.594 34.8524C66.554 34.5851 61.5056 34.584 56.4655 34.849C58.9525 31.1668 61.5 27.7461 64.0615 24.6427ZM41.401 49.308C40.1451 51.7533 38.9403 54.2313 37.7875 56.7398C36.1955 52.4995 34.833 48.33 33.7205 44.3036C37.3725 43.3863 41.267 42.6363 45.325 42.067C43.9668 44.4457 42.6584 46.8604 41.401 49.308ZM45.4415 85.9963C41.249 85.4708 37.296 84.7595 33.645 83.8669C34.775 79.7686 36.1675 75.5104 37.794 71.1791C38.9514 73.6895 40.1612 76.169 41.4225 78.6155C42.7195 81.1306 44.0625 83.594 45.4415 85.9963ZM64.2125 103.417C61.6205 100.277 59.0355 96.8038 56.511 93.0683C58.962 93.176 61.4605 93.2311 64 93.2311C66.609 93.2311 69.188 93.1654 71.7265 93.0385C69.234 96.8415 66.7175 100.32 64.2125 103.417ZM90.3115 70.9579C92.0225 75.3369 93.4645 79.5727 94.6095 83.6007C90.8985 84.5518 86.8915 85.3175 82.6695 85.8862C84.0224 83.4781 85.3325 81.04 86.599 78.5734C87.8867 76.0662 89.1245 73.5271 90.3115 70.9579ZM81.8625 75.5059C79.9235 79.2876 77.8755 82.9976 75.722 86.6301C71.8208 86.9405 67.911 87.0946 64 87.0921C60.0165 87.0921 56.142 86.9529 52.411 86.6812C50.201 83.0573 48.114 79.3407 46.1545 75.5396C44.2039 71.7587 42.3826 67.8958 40.6935 63.9595C42.3784 60.0222 44.1946 56.1576 46.1385 52.3738L46.138 52.3744C48.0809 48.5894 50.1512 44.8888 52.3445 41.2805C56.151 40.9571 60.0545 40.7887 63.9995 40.7887C67.9625 40.7887 71.8715 40.9588 75.677 41.2844C77.8482 44.8873 79.9053 48.5752 81.8445 52.3412C83.7945 56.1169 85.6349 59.9627 87.3625 63.8725C85.6525 67.8222 83.8181 71.7025 81.8625 75.5059ZM93.1425 6.94502C97.4285 9.7206 99.0955 20.9133 96.4025 35.5912C96.2298 36.5284 96.0382 37.4809 95.8275 38.4487C90.5165 37.0722 84.75 36.0487 78.7125 35.4127C75.1955 29.7891 71.551 24.6764 67.8925 20.2503C68.8513 19.2126 69.833 18.2017 70.8365 17.2187C80.2865 7.98531 89.1185 4.33955 93.1425 6.94502ZM64 50.9798C70.3125 50.9798 75.43 56.7258 75.43 63.8135C75.43 70.9012 70.3125 76.6472 64 76.6472C57.6875 76.6472 52.57 70.9012 52.57 63.8135C52.57 56.7258 57.6875 50.9798 64 50.9798Z" fill="#00D8FF"/>
</g>
<defs>
<clipPath id="clip0_102_40">
<rect width="128" height="128" fill="white"/>
</clipPath>
</defs>
</svg>
